<svg id="svg" version="1.1" xmlns="http://www.w3.org/2000/svg" xmlns:xlink="http://www.w3.org/1999/xlink" width="400" height="515.9375" viewBox="0, 0, 400,515.9375"><g id="svgg"><path id="path0" d="M136.875 191.719 L 136.875 257.188 145.469 257.188 L 154.063 257.188 154.063 199.688 L 154.063 142.188 172.344 142.188 L 190.625 142.188 190.625 199.688 L 190.625 257.188 200.000 257.188 L 209.375 257.188 209.375 199.688 L 209.375 142.188 227.188 142.188 L 245.000 142.188 245.000 199.688 L 245.000 257.188 254.063 257.188 L 263.125 257.188 263.125 191.719 L 263.125 126.250 200.000 126.250 L 136.875 126.250 136.875 191.719 " stroke="none" fill="#040505" fill-rule="evenodd"></path><path id="path1" d="M194.677 0.466 C 186.737 2.049,188.441 0.571,147.656 41.277 L 112.031 76.833 109.063 78.220 C 107.430 78.983,99.203 82.877,90.781 86.872 C 82.359 90.868,74.344 94.667,72.969 95.313 C 71.594 95.960,68.852 97.259,66.875 98.201 C 62.450 100.307,29.173 116.076,24.764 118.155 C 12.635 123.875,6.402 133.844,6.956 146.637 C 7.182 151.845,7.899 154.071,12.462 163.750 C 14.528 168.133,16.261 171.873,16.312 172.063 C 16.364 172.252,13.875 175.004,10.781 178.179 C 0.414 188.818,-2.346 197.465,1.220 208.125 C 3.341 214.463,1.843 212.785,35.816 246.875 L 66.492 277.656 68.988 282.969 C 70.361 285.891,77.919 301.852,85.783 318.438 C 93.648 335.023,103.576 355.967,107.846 364.979 C 112.116 373.991,116.224 382.288,116.974 383.416 C 122.959 392.414,133.385 397.338,144.101 396.230 C 149.169 395.705,150.872 395.099,161.052 390.191 C 164.122 388.711,166.684 387.500,166.744 387.500 C 166.804 387.500,168.290 386.793,170.047 385.930 L 173.241 384.359 178.105 389.152 C 187.877 398.783,195.352 401.667,205.161 399.591 C 213.298 397.869,212.154 398.834,245.625 365.433 L 274.844 336.275 279.531 334.043 C 284.587 331.636,326.403 311.816,355.781 297.902 C 377.895 287.429,378.902 286.913,381.830 284.558 C 390.813 277.331,394.663 264.608,391.235 253.476 C 390.639 251.543,388.706 247.264,383.311 235.938 L 380.707 230.469 387.486 223.594 C 391.215 219.813,394.833 215.875,395.526 214.844 C 401.710 205.647,401.530 193.583,395.075 184.532 C 394.462 183.672,378.630 167.614,359.893 148.846 L 325.827 114.724 315.865 93.690 C 310.386 82.121,305.574 71.953,305.171 71.094 C 304.768 70.234,303.567 67.703,302.501 65.469 C 301.435 63.234,296.840 53.531,292.289 43.906 C 280.948 19.919,279.643 18.075,270.920 13.723 C 261.221 8.883,253.741 9.564,238.867 16.639 L 231.327 20.226 224.551 13.472 C 212.135 1.097,205.656 -1.724,194.677 0.466 M263.558 17.803 C 271.647 19.872,275.685 23.840,280.888 34.828 C 285.994 45.613,301.291 77.846,306.477 88.750 C 309.134 94.336,311.516 99.398,311.771 100.000 C 312.089 100.751,300.331 89.198,274.250 63.133 C 253.358 42.255,236.367 25.080,236.492 24.966 C 236.968 24.534,250.231 18.484,251.719 18.021 C 255.021 16.992,260.028 16.900,263.558 17.803 M60.013 128.893 C 38.794 150.113,21.386 167.428,21.329 167.371 C 20.933 166.975,14.794 153.756,14.133 151.875 C 12.966 148.557,12.909 142.286,14.013 138.750 C 16.322 131.355,20.445 127.144,29.531 122.899 C 31.766 121.855,34.648 120.497,35.938 119.881 C 46.289 114.937,98.315 90.333,98.437 90.324 C 98.523 90.318,81.232 107.674,60.013 128.893 M263.438 191.719 L 263.438 257.500 254.219 257.500 L 245.000 257.500 245.000 200.000 L 245.000 142.500 227.345 142.500 L 209.689 142.500 209.610 199.922 L 209.531 257.344 200.078 257.426 L 190.625 257.509 190.625 200.005 L 190.625 142.500 172.344 142.500 L 154.063 142.500 154.063 200.000 L 154.063 257.500 145.313 257.500 L 136.563 257.500 136.563 191.719 L 136.563 125.938 200.000 125.938 L 263.438 125.938 263.438 191.719 M380.424 244.690 C 387.270 259.199,387.880 264.578,383.571 272.442 C 380.046 278.875,377.969 280.348,361.563 288.047 C 360.102 288.733,350.680 293.196,340.625 297.966 C 330.570 302.735,321.219 307.168,319.844 307.816 C 315.796 309.724,312.014 311.520,301.094 316.719 C 295.422 319.419,290.289 321.835,289.688 322.088 C 288.934 322.404,302.157 308.976,332.179 278.937 C 356.152 254.952,375.868 235.431,375.994 235.557 C 376.120 235.683,378.114 239.793,380.424 244.690 M166.330 380.552 C 146.784 389.999,147.235 389.833,141.094 389.833 C 134.311 389.833,129.663 387.894,124.962 383.104 C 122.335 380.428,121.578 379.101,116.243 367.813 C 112.883 360.705,111.337 357.444,108.986 352.500 C 108.046 350.523,102.948 339.766,97.656 328.594 C 92.365 317.422,87.369 306.875,86.555 305.156 C 85.740 303.438,84.128 300.063,82.972 297.656 C 81.816 295.250,80.664 292.789,80.412 292.188 C 80.096 291.434,93.699 304.832,124.197 335.313 L 168.441 379.531 166.330 380.552 M101.250 477.813 L 101.250 515.313 106.406 515.313 L 111.563 515.313 111.563 482.656 L 111.563 450.000 121.719 450.000 L 131.875 450.000 131.875 482.656 L 131.875 515.313 137.344 515.313 L 142.813 515.313 142.813 482.656 L 142.813 450.000 152.813 450.000 L 162.813 450.000 162.813 482.656 L 162.813 515.313 168.125 515.313 L 173.438 515.313 173.438 477.813 L 173.438 440.313 137.344 440.313 L 101.250 440.313 101.250 477.813 M194.688 477.813 L 194.688 515.313 215.469 515.313 L 236.250 515.313 236.250 490.469 L 236.250 465.625 224.688 465.625 L 213.125 465.625 213.125 470.469 L 213.125 475.313 219.531 475.313 L 225.938 475.313 225.938 490.469 L 225.938 505.625 215.625 505.625 L 205.313 505.625 205.313 478.125 L 205.313 450.625 220.781 450.625 L 236.250 450.625 236.250 445.469 L 236.250 440.313 215.469 440.313 L 194.688 440.313 194.688 477.813 M257.188 477.805 L 257.188 515.313 262.185 515.313 L 267.183 515.313 267.264 492.340 L 267.344 469.368 275.845 486.168 C 280.520 495.409,285.750 505.711,287.467 509.063 L 290.588 515.156 294.669 515.243 L 298.750 515.331 298.750 477.822 L 298.750 440.313 293.440 440.313 L 288.130 440.313 288.049 460.609 L 287.969 480.905 286.624 478.343 C 285.885 476.934,283.650 472.617,281.659 468.750 C 279.668 464.883,277.514 460.734,276.874 459.531 C 276.233 458.328,274.118 454.250,272.172 450.469 C 270.227 446.688,268.250 442.891,267.778 442.031 L 266.921 440.469 262.054 440.383 L 257.188 440.297 257.188 477.805 " stroke="none" fill="#14bcec" fill-rule="evenodd"></path><path id="path2" d="M209.528 199.844 C 209.528 231.469,209.565 244.453,209.609 228.697 C 209.654 212.941,209.654 187.066,209.609 171.197 C 209.565 155.328,209.528 168.219,209.528 199.844 " stroke="none" fill="#1494bc" fill-rule="evenodd"></path><path id="path3" d="M199.999 126.171 L 263.124 126.252 263.203 191.641 L 263.283 257.031 263.282 191.563 L 263.281 126.094 200.078 126.093 L 136.875 126.091 199.999 126.171 M163.225 142.422 C 168.351 142.470,176.648 142.470,181.663 142.422 C 186.678 142.373,182.484 142.334,172.344 142.334 C 162.203 142.334,158.100 142.374,163.225 142.422 M218.203 142.422 C 223.145 142.470,231.230 142.470,236.172 142.422 C 241.113 142.373,237.070 142.334,227.188 142.334 C 217.305 142.334,213.262 142.373,218.203 142.422 " stroke="none" fill="#044454" fill-rule="evenodd"></path><path id="path4" d="M136.718 191.719 L 136.719 257.344 145.313 257.351 L 153.906 257.359 145.391 257.268 L 136.876 257.178 136.797 191.636 L 136.717 126.094 136.718 191.719 M195.234 257.421 C 197.855 257.474,202.145 257.474,204.766 257.421 C 207.387 257.369,205.242 257.326,200.000 257.326 C 194.758 257.326,192.613 257.369,195.234 257.421 M249.453 257.421 C 251.988 257.474,256.137 257.474,258.672 257.421 C 261.207 257.369,259.133 257.326,254.063 257.326 C 248.992 257.326,246.918 257.369,249.453 257.421 " stroke="none" fill="#0c7c94" fill-rule="evenodd"></path></g></svg>